HIERARCHY
ROOT Hips
{
  OFFSET 57.8838 95.319 338.509
  CHANNELS 6 Xposition Yposition Zposition Zrotation Xrotation Yrotation
  JOINT LeftUpLeg
  {
    OFFSET 8.64259 1.95398 -2.38835
    CHANNELS 3 Zrotation Xrotation Yrotation
    JOINT LeftLeg
    {
      OFFSET 43.7702 0 0
      CHANNELS 3 Zrotation Xrotation Yrotation
      JOINT LeftFoot
      {
        OFFSET 40.6238 0 0
        CHANNELS 3 Zrotation Xrotation Yrotation
        JOINT LeftToeBase
        {
          OFFSET 12.7242 0 0
          CHANNELS 3 Zrotation Xrotation Yrotation
          End Site
          {
            OFFSET 0 0 0
          }
        }
      }
    }
  }
  JOINT RightUpLeg
  {
    OFFSET -8.2249 1.95398 -2.59336
    CHANNELS 3 Zrotation Xrotation Yrotation
    JOINT RightLeg
    {
      OFFSET 43.5653 0 0
      CHANNELS 3 Zrotation Xrotation Yrotation
      JOINT RightFoot
      {
        OFFSET 40.6238 0 0
        CHANNELS 3 Zrotation Xrotation Yrotation
        JOINT RightToeBase
        {
          OFFSET 12.7242 0 0
          CHANNELS 3 Zrotation Xrotation Yrotation
          End Site
          {
            OFFSET 0 0 0
          }
        }
      }
    }
  }
  JOINT Spine
  {
    OFFSET 0.165834 0.87714 6.61349
    CHANNELS 3 Zrotation Xrotation Yrotation
    JOINT Spine1
    {
      OFFSET 7.38963 1.71661e-005 0
      CHANNELS 3 Zrotation Xrotation Yrotation
      JOINT Spine2
      {
        OFFSET 11.9445 1.14441e-005 0
        CHANNELS 3 Zrotation Xrotation Yrotation
        JOINT Spine3
        {
          OFFSET 14.7254 4.19617e-005 0
          CHANNELS 3 Zrotation Xrotation Yrotation
          JOINT Spine4
          {
            OFFSET 10.9679 0 0
            CHANNELS 3 Zrotation Xrotation Yrotation
            JOINT RightShoulder
            {
              OFFSET 2.46616 -1.6653 3.69651
              CHANNELS 3 Zrotation Xrotation Yrotation
              JOINT RightArm
              {
                OFFSET 13.0012 0 0
                CHANNELS 3 Zrotation Xrotation Yrotation
                JOINT RightForeArm
                {
                  OFFSET 28.7848 1.62311e-005 0
                  CHANNELS 3 Zrotation Xrotation Yrotation
                  JOINT RightHand
                  {
                    OFFSET 26.5688 1.62095e-005 0
                    CHANNELS 3 Zrotation Xrotation Yrotation
                    End Site
                    {
                      OFFSET 0 0 0
                    }
                  }
                }
              }
            }
            JOINT LeftShoulder
            {
              OFFSET 2.38034 -1.29275 -3.7523
              CHANNELS 3 Zrotation Xrotation Yrotation
              JOINT LeftArm
              {
                OFFSET 16.3182 6.07031e-005 0
                CHANNELS 3 Zrotation Xrotation Yrotation
                JOINT LeftForeArm
                {
                  OFFSET 27.0901 0 0
                  CHANNELS 3 Zrotation Xrotation Yrotation
                  JOINT LeftHand
                  {
                    OFFSET 24.5451 1.51738e-005 0
                    CHANNELS 3 Zrotation Xrotation Yrotation
                    End Site
                    {
                      OFFSET 0 0 0
                    }
                  }
                }
              }
            }
            JOINT Neck
            {
              OFFSET 5.0226 -0.0266342 0
              CHANNELS 3 Zrotation Xrotation Yrotation
              JOINT Head
              {
                OFFSET 6.69364 2.86102e-005 0
                CHANNELS 3 Zrotation Xrotation Yrotation
                End Site
                {
                  OFFSET 0 0 0
                }
              }
            }
          }
        }
      }
    }
  }
}
MOTION
Frames:	14
Frame Time:	0.0416667
-132.653 83.3408 -35.3041 108.684 71.0166 81.0906 178.681 25.7471 100.259 -66.4316 23.7588 7.44822 64.155 16.2271 21.4265 63.7005 18.5111 13.6728 170.784 33.6075 84.9169 -83.4623 -12.7872 -1.72778 62.2254 -3.22426 -5.58732 33.4421 -6.64233 -5.68234 -0.928307 9.83435 -89.1473 7.21356 -1.48635 1.74921 -4.4578 -1.40795 1.8129 -26.9945 -1.9433 1.22166 -6.98188 -1.94331 1.22165 96.5047 -49.1678 -90.884 16.6249 17.8217 -23.5165 11.7426 2.96236 -59.9964 -9.16092 0.244831 -8.73555 -90.5325 -49.9428 77.9201 -38.4232 13.7591 -43.684 2.82853 32.6459 -31.266 3.98147 -0.789511 -16.9135 3.06507 -26.5391 0.470646 -13.4948 -23.0784 -34.4089 
-121.861 83.1653 -24.4321 105.542 55.0855 78.879 -171.282 23.007 108.561 -56.8524 21.9258 4.18148 63.1272 6.44563 8.81106 64.573 18.0761 10.9038 177.392 30.5667 71.4129 -80.6328 -3.90431 -5.31404 62.4538 -6.45653 -6.6845 35.2412 -9.35115 -6.15234 -0.826612 8.83091 -88.6613 9.21188 -1.04922 2.73817 -2.46172 -0.927735 2.78164 -24.9822 -1.82342 2.29662 -4.96955 -1.82341 2.29661 96.2577 -50.0653 -91.1647 27.7528 -12.2997 -9.50342 -14.7694 4.44279 -83.2668 -6.46407 -0.224145 -2.0032 -89.0328 -54.2136 80.9845 -29.028 25.5369 -49.372 16.853 24.8806 -61.6182 4.56166 -0.893041 -17.5627 6.61736 -26.2229 6.89953 -18.3519 -22.0296 -37.9123 
-108.021 87.0816 -13.7625 99.6934 37.1024 83.8097 -168.086 4.6543 114.184 -31.6235 13.2295 7.59391 54.2407 -9.91304 -1.56993 49.1178 10.5211 14.8358 171.738 31.8983 71.2833 -67.3279 1.48008 -3.68477 59.9614 -1.5261 -3.00925 34.5743 -8.41773 -6.61466 -0.995045 7.85624 -89.6438 11.2054 -1.81365 0.918603 -0.464264 -1.77145 0.997548 -23.0124 -2.00592 0.330857 -2.99977 -2.00591 0.330861 91.8218 -49.8694 -98.0575 37.8792 -28.5713 7.90509 -24.4711 5.00879 -63.4454 -3.87797 0.022245 -6.39042 -84.9846 -55.1029 86.8922 -17.2192 18.8636 -45.6387 24.388 9.5959 -79.11 4.97205 -0.879917 -16.6243 14.7383 -19.371 15.8412 -19.7603 -18.7189 -30.8569 
-95.0005 88.1533 -1.77276 96.2708 15.2258 78.9833 -168.007 -3.75867 106.181 -41.5736 19.1444 5.88332 50.8636 -10.7667 3.57918 47.9046 9.81027 14.6969 168.114 33.3729 75.5369 -65.4518 -3.23554 -0.845073 59.5249 5.14184 5.85341 40.9388 -17.3911 -4.90821 -0.481198 8.03668 -90.609 10.7901 -1.23951 -1.10753 -0.880649 -1.28706 -1.05191 -23.4144 -0.849411 -1.42882 -3.40177 -0.849375 -1.42881 90.729 -49.4671 -99.8221 25.8398 -18.2746 1.63963 -7.23495 1.84973 -51.2962 -10.4062 0.0731979 -6.2595 -82.8469 -58.1871 90.1944 -11.773 -4.01712 -26.7192 19.3048 15.5036 -64.6861 3.27175 -0.660117 -15.6624 25.4859 -10.5745 18.8504 -18.7122 -14.2598 -18.7923 
-83.9277 86.678 11.4029 91.0045 -6.83449 81.0361 -160.215 10.7754 94.515 -75.1814 10.502 0.476018 53.741 -3.03457 8.86705 51.1201 11.9589 16.4036 167.179 30.9845 84.5503 -66.3065 -9.70853 0.92264 66.932 -8.55692 -3.97502 46.3654 -23.8131 -1.75898 0.369291 9.01391 -90.709 8.8466 0.4213 -1.43167 -2.82509 0.357866 -1.44883 -25.3558 0.832071 -1.23892 -5.34312 0.832051 -1.23892 91.4721 -50.4976 -98.4625 16.7305 -16.9432 -20.6426 -6.79034 -2.4597 -44.892 -14.0763 -0.112121 -4.37279 -82.9083 -57.1145 90.0243 -4.57222 -18.482 -8.38535 6.22571 35.9856 -26.3115 12.2399 -1.27293 -13.5729 36.4691 -4.42283 14.5661 -17.9842 -9.92367 -7.34267 
-71.2082 86.5262 25.5849 83.0614 -24.773 85.0881 -155.236 37.7827 80.5503 -97.2332 8.80436 3.21756 55.7292 1.64113 13.5768 53.2394 12.2312 11.7574 168.249 20.3684 94.8007 -58.7619 -12.1826 2.83131 73.8098 -13.9406 1.41824 45.5611 -21.7835 0.939338 1.51108 9.34531 -90.9921 8.21654 2.57979 -2.11937 -3.45362 2.48399 -2.23085 -26.005 3.09748 -1.24569 -5.99239 3.09748 -1.24569 91.3791 -47.8229 -99.1618 11.2967 -20.2097 -34.96 -11.3194 1.82357 -57.3082 -8.15285 -0.104452 -3.95261 -82.4234 -57.9895 90.7664 -2.34272 -29.2376 4.66759 -7.74141 69.9988 4.30535 17.9312 -1.14453 -11.11 38.7542 -1.77812 11.2853 -17.4818 -6.76506 -3.17929 
-56.2756 89.3583 42.715 75.3102 -32.7079 78.3787 -155.233 56.3393 67.8539 -87.3919 11.0825 1.13752 56.4123 0.00963153 9.73352 51.2634 10.8557 9.96772 171.764 3.31696 89.8279 -35.3042 -11.4719 1.12581 66.8061 9.09309 23.9183 31.9499 -4.1131 1.46031 2.00124 9.20513 -89.9047 8.46918 4.03576 -0.0529533 -3.19546 4.02954 -0.230821 -25.7784 3.8648 1.16426 -5.76578 3.86479 1.16427 94.2165 -45.5236 -95.0652 12.7292 -19.0428 -34.9958 -14.6829 7.17177 -75.9865 -7.34592 -0.108664 -3.5424 -84.7696 -52.4113 86.8635 -3.2412 -31.3822 22.1049 -0.886091 73.3411 -0.00500334 18.0298 -1.02848 -10.9817 37.05 -5.86636 2.37781 -16.4845 -6.65016 -0.182088 
-41.199 91.7607 59.3392 74.2921 -33.6357 82.7508 -162.977 56.1197 72.7708 -59.7205 15.9203 -5.43055 55.9788 -2.89251 6.42493 43.8081 6.79969 7.50959 173.895 -5.29315 95.5513 -35.5922 -18.9881 1.41283 42.6956 25.9603 30.481 13.9322 19.1293 1.69653 1.72866 9.54277 -90.0561 7.80099 3.42691 -0.299874 -3.86549 3.41037 -0.450584 -26.4364 3.35847 0.74512 -6.42373 3.35846 0.745124 94.9385 -47.1142 -93.6383 12.9878 -13.2802 -26.9515 -14.0511 4.30692 -77.7566 -10.0686 -0.265701 -2.27716 -86.8049 -54.3184 84.1889 -7.97781 -32.6784 16.6356 0.544837 72.3256 0.00311601 16.6939 -1.20352 -12.8164 40.9808 -6.22293 -0.980819 -19.0805 -5.58342 1.21723 
-25.6573 90.8152 75.0684 78.4366 -33.2255 86.3657 -166.792 39.1648 74.2627 -44.2542 16.0959 -9.82757 53.6126 -5.94354 9.19592 43.0895 6.26354 5.47694 169.189 6.51432 95.4372 -85.1257 -20.6412 -0.539534 50.924 17.6656 12.5825 13.7038 20.3782 -0.695428 0.902873 10.3579 -90.1364 6.1605 1.74626 -0.324071 -5.50933 1.73031 -0.400646 -28.0539 1.7629 0.2159 -8.0412 1.76289 0.215891 93.9647 -49.5569 -94.7936 13.6761 -7.45501 -18.1263 -10.1696 -3.66576 -55.1634 -13.4444 0.0404171 -5.69433 -85.8848 -56.3719 85.777 -13.8068 -24.1851 -0.732645 -6.41096 54.1979 -0.0180501 17.569 -1.43194 -12.5243 43.8002 -4.31046 -4.80859 -17.9895 -2.37296 6.02163 
-9.30723 87.0731 91.0714 78.4342 -32.5294 85.6165 -175.078 21.8903 75.4121 -44.0422 21.0621 -5.06675 61.3371 13.8892 27.5848 50.1869 9.03942 2.05176 165.267 33.9879 95.2264 -121.049 -14.3634 -3.47523 55.6624 5.21017 -5.73968 22.8729 8.69818 -4.25623 0.482136 10.158 -90.0508 6.55513 0.941598 -0.135975 -5.11569 0.934713 -0.17728 -27.6518 0.938952 0.153325 -7.63913 0.938937 0.15331 93.6983 -52.6192 -94.7139 15.8396 -0.680435 0.711832 -5.88518 -11.9389 -33.9148 -12.8523 -0.114215 -4.24922 -83.4163 -58.1493 89.4072 -11.5445 -18.1024 -21.9201 -0.586396 32.0459 -16.7232 20.5607 -1.99254 -13.7099 39.5347 -3.70044 -5.33485 -14.984 -1.468 4.99835 
7.56551 86.7735 107.963 76.0479 -22.8517 86.5524 179.784 2.69603 80.4246 -38.6018 26.1024 2.08837 62.5512 8.51766 16.7513 58.6195 13.0135 3.39415 159.298 61.2919 100.738 -114.453 -18.2951 -2.86201 60.0333 0.575373 -5.77694 34.2031 -7.77988 -5.99073 -0.522902 9.55176 -90.3808 7.78632 -1.21042 -0.676144 -3.8839 -1.239 -0.622213 -26.4236 -0.951229 -1.00868 -6.41099 -0.951237 -1.00868 94.5029 -51.4267 -93.6827 23.297 3.80818 24.8462 -4.34447 -11.6428 -29.8025 -9.58405 -0.0946719 -4.29678 -83.353 -53.0053 89.0219 -14.1787 -13.4146 -40.3278 9.43192 14.7438 -51.9087 19.0485 -2.12028 -15.0749 32.1542 -4.16231 -6.86414 -12.7916 -1.40107 3.3221 
27.9873 89.7148 126.599 74.6434 -24.172 89.9331 -177.164 -8.58207 89.851 -33.3379 25.3144 6.28414 51.3551 -8.66476 1.6993 46.5475 8.22737 9.09017 169.613 62.7097 96.7364 -69.5593 -14.5049 1.01249 63.9436 2.62858 9.42109 34.7266 -9.24283 -10.9359 -1.1767 9.19538 -90.6691 8.46667 -2.64349 -1.16123 -3.20207 -2.69204 -1.0437 -25.7481 -2.17232 -1.90218 -5.73545 -2.17231 -1.90218 92.0496 -50.0588 -97.6644 31.6426 -0.183997 36.8382 -1.22049 -2.61109 -31.0832 -6.28056 0.0756716 -7.24739 -81.1102 -48.8387 92.0573 -9.89703 -9.31669 -41.4771 12.149 4.67855 -78.4591 18.171 -2.23481 -16.1871 28.0403 -1.52615 -12.0242 -18.1016 2.06462 7.84367 
49.058 89.1353 143.678 80.6809 -25.8487 91.3863 -178.897 -12.3984 89.4658 -71.42 22.2756 8.18664 50.774 -7.43124 4.19004 48.3185 9.52807 11.2494 170.855 49.3009 90.473 -36.015 -15.8791 7.00454 54.9447 13.4793 11.1506 38.7207 -17.0556 -15.9315 -1.39041 9.77081 -90.6157 7.31719 -3.0426 -1.07106 -4.35054 -3.08675 -0.936002 -26.9041 -2.58 -1.93637 -6.89144 -2.58001 -1.93637 91.9566 -52.5527 -97.3298 31.0569 2.27767 33.5363 2.84817 5.01319 -34.7107 -0.192424 -0.0382284 -7.95711 -82.0888 -50.2418 90.6603 -10.4868 -2.03698 -32.0178 12.1502 7.07189 -74.4849 16.1144 -1.51961 -13.1347 27.7685 -0.111963 -11.2619 -18.4903 2.69769 10.5546 
68.7907 85.9279 160.058 82.8062 -33.8184 96.5245 -172.364 4.51892 94.0446 -113.967 9.08444 6.19227 51.1117 -5.00388 9.63629 47.2787 8.3588 6.74184 161.021 41.5151 102.794 -56.2582 -15.5887 8.47741 67.0759 -3.85824 5.65912 31.6277 -3.83695 1.18383 -0.672009 9.99738 -91.2215 6.85823 -1.86479 -2.33132 -4.8132 -1.96557 -2.24703 -27.3365 -1.07819 -2.78368 -7.32383 -1.07819 -2.78368 92.7488 -55.975 -95.5727 22.3139 2.5446 14.935 7.94317 9.13648 -43.0847 -3.46549 0.0123833 -6.59759 -82.5875 -56.8165 90.4535 -19.146 -11.4707 -20.0442 11.3411 27.7872 -38.6907 11.4358 -1.53916 -16.2809 35.5575 1.06256 -13.5394 -21.4846 4.3486 16.6695 
